<mxfile host="app.diagrams.net" modified="2024-04-25T13:20:47.836Z" agent="Mozilla/5.0 (X11; Linux x86_64; rv:125.0) Gecko/20100101 Firefox/125.0" etag="R7rGwdNbZGB5-qv4mRw8" version="24.3.0" type="device">
  <diagram name="Page-1" id="IbEQeKj_McPke4w-xEGC">
    <mxGraphModel dx="1079" dy="507" grid="1" gridSize="10" guides="1" tooltips="1" connect="1" arrows="1" fold="1" page="1" pageScale="1" pageWidth="850" pageHeight="1100" math="0" shadow="0">
      <root>
        <mxCell id="0" />
        <mxCell id="1" parent="0" />
        <mxCell id="k0RXGG7jA4YN6tqX4Mhr-10" value="&lt;p style=&quot;margin:0px;margin-top:4px;text-align:center;&quot;&gt;&lt;i&gt;&amp;lt;&amp;lt;Interface&amp;gt;&amp;gt;&lt;/i&gt;&lt;br&gt;&lt;b&gt;waterAPI&lt;/b&gt;&lt;br&gt;&lt;/p&gt;&lt;hr size=&quot;1&quot; style=&quot;border-style:solid;&quot;&gt;&lt;p style=&quot;margin:0px;margin-left:4px;&quot;&gt;GET:&amp;nbsp; /water/items&lt;/p&gt;&lt;p style=&quot;margin:0px;margin-left:4px;&quot;&gt;GET: /water/score&lt;br&gt;&lt;/p&gt;&lt;p style=&quot;margin:0px;margin-left:4px;&quot;&gt;POST: /water/items&lt;br&gt;&lt;/p&gt;&lt;hr size=&quot;1&quot; style=&quot;border-style:solid;&quot;&gt;" style="verticalAlign=top;align=left;overflow=fill;html=1;whiteSpace=wrap;" vertex="1" parent="1">
          <mxGeometry x="425" y="530" width="200" height="100" as="geometry" />
        </mxCell>
        <mxCell id="k0RXGG7jA4YN6tqX4Mhr-27" value="&lt;div&gt;Item&lt;/div&gt;&lt;div&gt;&lt;br&gt;&lt;/div&gt;" style="swimlane;fontStyle=1;align=center;verticalAlign=top;childLayout=stackLayout;horizontal=1;startSize=26;horizontalStack=0;resizeParent=1;resizeParentMax=0;resizeLast=0;collapsible=1;marginBottom=0;whiteSpace=wrap;html=1;" vertex="1" parent="1">
          <mxGeometry x="120" y="335" width="200" height="110" as="geometry">
            <mxRectangle x="440" y="640" width="110" height="30" as="alternateBounds" />
          </mxGeometry>
        </mxCell>
        <mxCell id="k0RXGG7jA4YN6tqX4Mhr-28" value="&lt;div&gt;+ id: long&lt;/div&gt;&lt;div&gt;+ name: String&lt;/div&gt;&lt;div&gt;+ type: enum&lt;/div&gt;&lt;div&gt;+ water: int&lt;br&gt;+ price: int&lt;/div&gt;" style="text;strokeColor=none;fillColor=none;align=left;verticalAlign=top;spacingLeft=4;spacingRight=4;overflow=hidden;rotatable=0;points=[[0,0.5],[1,0.5]];portConstraint=eastwest;whiteSpace=wrap;html=1;" vertex="1" parent="k0RXGG7jA4YN6tqX4Mhr-27">
          <mxGeometry y="26" width="200" height="84" as="geometry" />
        </mxCell>
        <mxCell id="k0RXGG7jA4YN6tqX4Mhr-31" value="Eater" style="swimlane;fontStyle=1;align=center;verticalAlign=top;childLayout=stackLayout;horizontal=1;startSize=26;horizontalStack=0;resizeParent=1;resizeParentMax=0;resizeLast=0;collapsible=1;marginBottom=0;whiteSpace=wrap;html=1;" vertex="1" parent="1">
          <mxGeometry x="120" y="520" width="200" height="80" as="geometry" />
        </mxCell>
        <mxCell id="k0RXGG7jA4YN6tqX4Mhr-32" value="&lt;div&gt;+ name: String&lt;/div&gt;&lt;div&gt;+ diet: enum&lt;/div&gt;&lt;div&gt;+ preferences: Item[]&lt;/div&gt;" style="text;strokeColor=none;fillColor=none;align=left;verticalAlign=top;spacingLeft=4;spacingRight=4;overflow=hidden;rotatable=0;points=[[0,0.5],[1,0.5]];portConstraint=eastwest;whiteSpace=wrap;html=1;" vertex="1" parent="k0RXGG7jA4YN6tqX4Mhr-31">
          <mxGeometry y="26" width="200" height="54" as="geometry" />
        </mxCell>
        <mxCell id="k0RXGG7jA4YN6tqX4Mhr-35" value="" style="endArrow=none;html=1;rounded=0;exitX=0.5;exitY=1;exitDx=0;exitDy=0;entryX=0.5;entryY=0;entryDx=0;entryDy=0;" edge="1" parent="1" source="k0RXGG7jA4YN6tqX4Mhr-27" target="k0RXGG7jA4YN6tqX4Mhr-31">
          <mxGeometry width="50" height="50" relative="1" as="geometry">
            <mxPoint x="380" y="340" as="sourcePoint" />
            <mxPoint x="430" y="290" as="targetPoint" />
          </mxGeometry>
        </mxCell>
        <mxCell id="k0RXGG7jA4YN6tqX4Mhr-36" value="storage" style="shape=umlFrame;whiteSpace=wrap;html=1;pointerEvents=0;" vertex="1" parent="1">
          <mxGeometry x="80" y="290" width="280" height="170" as="geometry" />
        </mxCell>
        <mxCell id="k0RXGG7jA4YN6tqX4Mhr-37" value="ćore" style="shape=umlFrame;whiteSpace=wrap;html=1;pointerEvents=0;" vertex="1" parent="1">
          <mxGeometry x="80" y="482.5" width="280" height="247.5" as="geometry" />
        </mxCell>
        <mxCell id="k0RXGG7jA4YN6tqX4Mhr-38" value="ćore" style="shape=umlFrame;whiteSpace=wrap;html=1;pointerEvents=0;" vertex="1" parent="1">
          <mxGeometry x="380" y="482.5" width="280" height="215" as="geometry" />
        </mxCell>
        <mxCell id="k0RXGG7jA4YN6tqX4Mhr-40" value="&lt;p style=&quot;margin:0px;margin-top:4px;text-align:center;&quot;&gt;&lt;i&gt;&amp;lt;&amp;lt;Interface&amp;gt;&amp;gt;&lt;/i&gt;&lt;br&gt;&lt;b&gt;WaterService&lt;/b&gt;&lt;br&gt;&lt;/p&gt;&lt;hr size=&quot;1&quot; style=&quot;border-style:solid;&quot;&gt;&lt;hr size=&quot;1&quot; style=&quot;border-style:solid;&quot;&gt;&lt;p style=&quot;margin:0px;margin-left:4px;&quot;&gt;+ grade(Type): int&lt;br&gt;+ generateEater(): Eater&lt;br&gt;&lt;/p&gt;" style="verticalAlign=top;align=left;overflow=fill;html=1;whiteSpace=wrap;" vertex="1" parent="1">
          <mxGeometry x="130" y="617.5" width="190" height="102.5" as="geometry" />
        </mxCell>
        <mxCell id="k0RXGG7jA4YN6tqX4Mhr-41" value="" style="endArrow=none;html=1;rounded=0;exitX=1;exitY=0.25;exitDx=0;exitDy=0;entryX=0;entryY=0.5;entryDx=0;entryDy=0;" edge="1" parent="1" source="k0RXGG7jA4YN6tqX4Mhr-40" target="k0RXGG7jA4YN6tqX4Mhr-10">
          <mxGeometry width="50" height="50" relative="1" as="geometry">
            <mxPoint x="520" y="520" as="sourcePoint" />
            <mxPoint x="570" y="470" as="targetPoint" />
          </mxGeometry>
        </mxCell>
      </root>
    </mxGraphModel>
  </diagram>
</mxfile>
